Coordinates
version=1
nRows=38
nColumns=38
inDegrees=no

Units are S.I. units (second, meters, Newtons, ...)
If the header above contains a line with 'inDegrees', this indicates whether rotational values are in degrees (yes) or radians (no).

endheader
time	pelvis_tilt	pelvis_list	pelvis_rotation	pelvis_tx	pelvis_ty	pelvis_tz	hip_flexion_r	hip_adduction_r	hip_rotation_r	knee_angle_r	ankle_angle_r	subtalar_angle_r	mtp_angle_r	hip_flexion_l	hip_adduction_l	hip_rotation_l	knee_angle_l	ankle_angle_l	subtalar_angle_l	mtp_angle_l	lumbar_extension	lumbar_bending	lumbar_rotation	arm_flex_r	arm_add_r	arm_rot_r	elbow_flex_r	pro_sup_r	wrist_flex_r	wrist_dev_r	arm_flex_l	arm_add_l	arm_rot_l	elbow_flex_l	pro_sup_l	wrist_flex_l	wrist_dev_l
0	-3.08074	1.39163	-1.59178	0.662742	-0.401235	1.04765	-0.154507	-0.0834887	-0.292846	0.408176	-0.123546	0	0	-0.337022	-0.0421691	-0.200449	0	-0.527059	0	0	-0.238885	-0.012398	-0.112986	-0.0337485	-0.376039	0.568344	0.686841	1.03519	0	0	-0.0373564	-0.308013	0.282439	0.676855	1.5708	0	0
0.01	-3.07803	1.39309	-1.59376	0.663153	-0.401367	1.04763	-0.152665	-0.0832371	-0.291315	0.408509	-0.123036	0	0	-0.334615	-0.0423493	-0.200965	0	-0.526798	0	0	-0.236835	-0.0135769	-0.113318	-0.0321961	-0.377061	0.563854	0.695928	1.02684	0	0	-0.0374265	-0.310099	0.285147	0.679451	1.56913	0	0
0.02	-3.07458	1.39435	-1.5961	0.663544	-0.401551	1.04762	-0.150996	-0.0830537	-0.289763	0.409018	-0.122287	0	0	-0.332279	-0.0425348	-0.200413	0	-0.526099	0	0	-0.235365	-0.0149263	-0.114262	-0.0300616	-0.377942	0.561468	0.70416	1.01718	0	0	-0.0371701	-0.312738	0.290212	0.681888	1.55717	0	0
0.03	-3.07045	1.39591	-1.59917	0.663932	-0.40175	1.04756	-0.148671	-0.0831313	-0.28846	0.410206	-0.120762	0	0	-0.329488	-0.0426183	-0.199414	0	-0.524332	0	0	-0.233757	-0.0164096	-0.114904	-0.0277914	-0.378978	0.560935	0.7118	1.00245	0	0	-0.0363574	-0.316124	0.299297	0.683773	1.53827	0	0
0.04	-3.064	1.39789	-1.60446	0.664315	-0.401908	1.04746	-0.14559	-0.0837561	-0.287589	0.412501	-0.118233	0	0	-0.32604	-0.0423417	-0.197941	0	-0.5208	0	0	-0.231372	-0.0183072	-0.115528	-0.0258058	-0.38017	0.562009	0.718874	0.983739	0	0	-0.0352437	-0.320291	0.312345	0.684859	1.51395	0	0
0.05	-3.05556	1.40055	-1.61186	0.664717	-0.40204	1.04731	-0.141366	-0.0848664	-0.286854	0.415911	-0.114754	0	0	-0.321685	-0.0417179	-0.196189	0	-0.515398	0	0	-0.227624	-0.020464	-0.116161	-0.0240585	-0.381062	0.564013	0.724699	0.965322	0	0	-0.0341228	-0.324386	0.32669	0.684557	1.48973	0	0
0.06	-3.04416	1.40551	-1.62247	0.665135	-0.402032	1.04698	-0.133941	-0.0866416	-0.285674	0.421537	-0.109675	0	0	-0.3147	-0.0407266	-0.194235	0	-0.506255	0	0	-0.21978	-0.0228728	-0.116243	-0.0233503	-0.381966	0.567647	0.728913	0.943181	0	0	-0.0328905	-0.328626	0.345677	0.681903	1.46048	0	0
0.07	-3.02789	1.41405	-1.63855	0.665593	-0.401873	1.0463	-0.121029	-0.0894801	-0.283625	0.431394	-0.102342	0	0	-0.303417	-0.039263	-0.192286	0	-0.490958	0	0	-0.204177	-0.0263843	-0.114358	-0.0247713	-0.382064	0.572788	0.729604	0.916865	0	0	-0.0313793	-0.332356	0.370092	0.675	1.42419	0	0
0.08	-3.03364	1.40466	-1.63149	0.665912	-0.402412	1.04717	-0.134509	-0.0870912	-0.283394	0.420875	-0.110206	0	0	-0.312756	-0.040388	-0.192551	0	-0.507454	0	0	-0.220465	-0.0263065	-0.116748	-0.0202089	-0.381116	0.565823	0.736158	0.948369	0	0	-0.0338775	-0.330435	0.346589	0.681747	1.46744	0	0
0.09	-3.03903	1.39635	-1.62515	0.666228	-0.402963	1.04801	-0.147076	-0.0842943	-0.280985	0.409509	-0.121649	0	0	-0.320885	-0.041555	-0.192222	0	-0.527673	0	0	-0.239077	-0.026283	-0.116979	-0.0232351	-0.371134	0.522777	0.738495	1.1343	0	0	-0.0387554	-0.32065	0.290679	0.689228	1.5708	0	0
0.1	-3.03427	1.39645	-1.62984	0.666633	-0.403096	1.04806	-0.146705	-0.0844858	-0.27919	0.409601	-0.121326	0	0	-0.31932	-0.0413767	-0.191299	0	-0.526965	0	0	-0.238945	-0.0275821	-0.116261	-0.0223149	-0.371305	0.524049	0.741366	1.13064	0	0	-0.0390544	-0.321088	0.292862	0.687625	1.5708	0	0
0.11	-3.02976	1.3967	-1.63442	0.667051	-0.403184	1.04814	-0.146233	-0.0846895	-0.277691	0.409404	-0.121214	0	0	-0.31755	-0.0412379	-0.190544	0	-0.526361	0	0	-0.238415	-0.0286903	-0.115243	-0.0218602	-0.37137	0.525307	0.743426	1.12694	0	0	-0.0391721	-0.320611	0.293738	0.68471	1.5708	0	0
0.12	-3.02539	1.39729	-1.63927	0.667518	-0.403265	1.04822	-0.145334	-0.0848287	-0.275754	0.409109	-0.121218	0	0	-0.315346	-0.0410969	-0.189806	0	-0.52574	0	0	-0.237337	-0.02951	-0.1137	-0.0217336	-0.371687	0.526968	0.745027	1.12271	0	0	-0.0391755	-0.319654	0.294317	0.680202	1.5708	0	0
0.13	-3.01975	1.39791	-1.64502	0.667947	-0.403362	1.0483	-0.14459	-0.0850763	-0.273948	0.408512	-0.121284	0	0	-0.312872	-0.0408683	-0.188452	0	-0.525148	0	0	-0.23637	-0.0303929	-0.112627	-0.0217192	-0.371898	0.52853	0.746154	1.11782	0	0	-0.0393574	-0.318965	0.295692	0.674483	1.5708	0	0
0.14	-3.0127	1.3983	-1.65195	0.668342	-0.403507	1.04841	-0.14415	-0.085624	-0.27252	0.407737	-0.121346	0	0	-0.310274	-0.0404039	-0.186905	0	-0.524442	0	0	-0.236222	-0.0316759	-0.112183	-0.0214144	-0.371784	0.529796	0.746708	1.11241	0	0	-0.039601	-0.318798	0.298058	0.668952	1.5708	0	0
0.15	-3.00486	1.39836	-1.65998	0.668769	-0.40368	1.04855	-0.143954	-0.0864468	-0.271227	0.407005	-0.121411	0	0	-0.307862	-0.0396636	-0.185561	0	-0.523624	0	0	-0.235894	-0.0336298	-0.111147	-0.0214417	-0.371295	0.530984	0.746136	1.10719	0	0	-0.040328	-0.318998	0.300231	0.664243	1.5708	0	0
0.16	-2.99513	1.39812	-1.66968	0.669155	-0.403945	1.04874	-0.144039	-0.0877224	-0.270483	0.406148	-0.121631	0	0	-0.305313	-0.0385739	-0.183745	0	-0.522693	0	0	-0.23638	-0.0358893	-0.110465	-0.0208864	-0.37101	0.533646	0.745053	1.10173	0	0	-0.0409636	-0.319803	0.302587	0.66003	1.5708	0	0
0.17	-2.98443	1.39788	-1.68028	0.669513	-0.404259	1.04895	-0.144127	-0.0892779	-0.270023	0.405132	-0.121982	0	0	-0.302569	-0.0373087	-0.181615	0	-0.521629	0	0	-0.237108	-0.0381911	-0.109902	-0.0195922	-0.371068	0.538654	0.743208	1.09573	0	0	-0.0414939	-0.320964	0.305589	0.655603	1.5708	0	0
0.18	-2.97235	1.39781	-1.69201	0.66984	-0.404565	1.04914	-0.144199	-0.0910594	-0.269561	0.40383	-0.122385	0	0	-0.299446	-0.0358688	-0.179387	0	-0.520474	0	0	-0.237837	-0.0406617	-0.109725	-0.0180811	-0.371287	0.544763	0.74109	1.08785	0	0	-0.0420681	-0.322516	0.309765	0.650907	1.5708	0	0
0.19	-2.95873	1.39823	-1.70559	0.670206	-0.404804	1.04932	-0.143889	-0.0930043	-0.268371	0.40228	-0.122792	0	0	-0.295892	-0.0341453	-0.177775	0	-0.519561	0	0	-0.23809	-0.0438805	-0.10922	-0.017571	-0.371431	0.550332	0.739085	1.07866	0	0	-0.0428112	-0.324453	0.314929	0.646395	1.5708	0	0
0.2	-2.94484	1.39907	-1.72004	0.670585	-0.404974	1.04949	-0.143074	-0.0950238	-0.26665	0.400711	-0.123198	0	0	-0.292181	-0.0322122	-0.177239	0	-0.51889	0	0	-0.23768	-0.0469313	-0.108153	-0.0178356	-0.371401	0.554917	0.736957	1.07041	0	0	-0.0438962	-0.325911	0.319723	0.64117	1.5708	0	0
0.21	-2.93137	1.40045	-1.73513	0.671007	-0.405072	1.04963	-0.141399	-0.0970125	-0.264174	0.399121	-0.123621	0	0	-0.288274	-0.0301174	-0.17808	0	-0.518305	0	0	-0.236555	-0.0497802	-0.105978	-0.018396	-0.37155	0.559693	0.734527	1.06212	0	0	-0.0447852	-0.326617	0.324627	0.634518	1.5708	0	0
0.22	-2.91806	1.40244	-1.75067	0.671438	-0.40513	1.04981	-0.138889	-0.0989239	-0.261581	0.397471	-0.124055	0	0	-0.283922	-0.0279457	-0.17951	0	-0.517767	0	0	-0.234888	-0.0509494	-0.104296	-0.0186462	-0.372583	0.56472	0.73272	1.0545	0	0	-0.0451751	-0.32561	0.33001	0.624443	1.5708	0	0
0.23	-2.9053	1.40243	-1.76432	0.671765	-0.405462	1.04996	-0.138362	-0.101145	-0.261348	0.396666	-0.124389	0	0	-0.280904	-0.0259779	-0.180314	0	-0.516568	0	0	-0.237639	-0.0552046	-0.103536	-0.0169974	-0.372321	0.572334	0.729695	1.04345	0	0	-0.0465617	-0.332044	0.344602	0.625245	1.56909	0	0
0.24	-2.88741	1.40342	-1.78156	0.671955	-0.405931	1.05015	-0.136637	-0.104007	-0.262899	0.396268	-0.125047	0	0	-0.275801	-0.0236194	-0.180041	0	-0.515849	0	0	-0.238375	-0.0582112	-0.104681	-0.015322	-0.37254	0.58074	0.726197	1.03494	0	0	-0.0463531	-0.335444	0.357757	0.619662	1.55838	0	0
0.25	-2.86962	1.40536	-1.79945	0.672197	-0.406457	1.05034	-0.13324	-0.106857	-0.265179	0.396234	-0.125844	0	0	-0.269629	-0.0213288	-0.181995	0	-0.515673	0	0	-0.238552	-0.0608945	-0.105291	-0.0133662	-0.372677	0.589376	0.722019	1.02901	0	0	-0.0460869	-0.338118	0.369464	0.613263	1.5517	0	0
0.26	-2.85403	1.40823	-1.81656	0.672527	-0.406823	1.05044	-0.128815	-0.109119	-0.266288	0.395779	-0.126521	0	0	-0.263476	-0.0192869	-0.186125	0	-0.515894	0	0	-0.237469	-0.0629548	-0.104832	-0.0115348	-0.373237	0.599259	0.717646	1.02405	0	0	-0.0462831	-0.339982	0.380625	0.605997	1.54675	0	0
0.27	-2.83512	1.41071	-1.83687	0.672775	-0.406916	1.05044	-0.125595	-0.11148	-0.263713	0.394418	-0.126785	0	0	-0.258663	-0.0164365	-0.189585	0	-0.516186	0	0	-0.23588	-0.0653237	-0.104835	-0.010617	-0.374323	0.609622	0.714016	1.01989	0	0	-0.0477159	-0.341795	0.390907	0.598912	1.54419	0	0
0.28	-2.81715	1.41278	-1.85509	0.672936	-0.407183	1.05048	-0.122594	-0.113671	-0.262819	0.393541	-0.127224	0	0	-0.25396	-0.0138741	-0.190672	0	-0.516381	0	0	-0.235217	-0.0671899	-0.105885	-0.0094747	-0.375202	0.619486	0.710383	1.01644	0	0	-0.0485882	-0.34299	0.399375	0.591089	1.54421	0	0
0.29	-2.80006	1.41555	-1.87179	0.673	-0.407598	1.05052	-0.11855	-0.115476	-0.262992	0.393007	-0.12791	0	0	-0.248121	-0.0118108	-0.191415	0	-0.516672	0	0	-0.233587	-0.0680319	-0.106707	-0.00901067	-0.376236	0.628292	0.706634	1.01391	0	0	-0.0474979	-0.340734	0.403784	0.57823	1.54517	0	0
0.3	-2.78064	1.41943	-1.89047	0.673053	-0.407947	1.05078	-0.11378	-0.116791	-0.262567	0.391204	-0.128937	0	0	-0.241194	-0.0096935	-0.191123	0	-0.517482	0	0	-0.227809	-0.0636047	-0.106203	-0.0133033	-0.37794	0.625565	0.703776	1.03793	0	0	-0.04323	-0.325478	0.391388	0.547608	1.5553	0	0
0.31	-2.7802	1.4155	-1.89051	0.673141	-0.408659	1.05102	-0.117387	-0.118247	-0.264798	0.390938	-0.128861	0	0	-0.24363	-0.00798342	-0.193105	0	-0.517256	0	0	-0.244416	-0.0695296	-0.112626	-0.00448064	-0.375452	0.637101	0.699924	1.03278	0	0	-0.047926	-0.347228	0.426319	0.571471	1.54506	0	0
0.32	-2.77272	1.41621	-1.89738	0.673203	-0.40909	1.05119	-0.116257	-0.118888	-0.265232	0.389743	-0.129883	0	0	-0.241154	-0.00666386	-0.193666	0	-0.518059	0	0	-0.248595	-0.0689464	-0.117861	0.00206706	-0.37852	0.658273	0.697143	1.01499	0	0	-0.0424044	-0.361997	0.496098	0.570296	1.47006	0	0
0.33	-2.76472	1.41872	-1.90503	0.673224	-0.40943	1.05117	-0.112838	-0.119089	-0.264397	0.389628	-0.130419	0	0	-0.236985	-0.00584668	-0.194363	0	-0.518538	0	0	-0.249923	-0.0676264	-0.122242	0.00702074	-0.380984	0.676156	0.693543	1.00346	0	0	-0.0384609	-0.369956	0.543902	0.564458	1.42275	0	0
0.34	-2.75164	1.42306	-1.91769	0.673238	-0.409696	1.05089	-0.106068	-0.119764	-0.263671	0.393258	-0.126199	0	0	-0.230456	-0.00507538	-0.194815	0	-0.507361	0	0	-0.246542	-0.0656838	-0.128018	0.0177332	-0.389357	0.722177	0.692657	0.906739	0	0	-0.0239438	-0.391091	0.671913	0.561626	1.27311	0	0
0.35	-2.75529	1.42361	-1.91348	0.673227	-0.410062	1.05099	-0.106306	-0.118405	-0.26239	0.390539	-0.130433	0	0	-0.229739	-0.00541231	-0.195764	0	-0.517626	0	0	-0.252217	-0.062813	-0.133069	0.0222309	-0.38976	0.731091	0.688211	0.929413	0	0	-0.0228603	-0.394051	0.693677	0.557354	1.26568	0	0
0.36	-2.75739	1.42581	-1.91089	0.673222	-0.410357	1.05089	-0.10385	-0.116975	-0.260924	0.390662	-0.131168	0	0	-0.227251	-0.0061569	-0.19621	0	-0.519918	0	0	-0.254759	-0.0596684	-0.137507	0.0266324	-0.391167	0.744533	0.68387	0.940617	0	0	-0.0194439	-0.399547	0.734362	0.554274	1.23479	0	0
0.37	-2.76206	1.42876	-1.90586	0.673233	-0.410566	1.0507	-0.100626	-0.114962	-0.259174	0.391249	-0.131173	0	0	-0.224502	-0.00748852	-0.195771	0	-0.520658	0	0	-0.255577	-0.0563315	-0.141097	0.0301972	-0.393939	0.761005	0.680841	0.937325	0	0	-0.0135503	-0.40782	0.793151	0.552902	1.17718	0	0
